<svg width="154" height="77" viewBox="0 0 154 77" fill="none" xmlns="http://www.w3.org/2000/svg">
<g clip-path="url(#clip0_156_3)">
<path d="M12 53.375V43.1459H15.375C16.0833 43.1459 16.7396 43.2813 17.3542 43.5417C17.9792 43.8073 18.526 44.1771 19 44.6459C19.4687 45.1042 19.8385 45.6459 20.1042 46.2709C20.3646 46.8959 20.5 47.5573 20.5 48.25C20.5 48.9584 20.3646 49.625 20.1042 50.25C19.8385 50.8646 19.4687 51.4063 19 51.875C18.526 52.349 17.9792 52.7188 17.3542 52.9792C16.7396 53.2448 16.0833 53.375 15.375 53.375H12ZM14.25 51.375H15.375C15.9167 51.375 16.401 51.2448 16.8333 50.9792C17.2604 50.7032 17.6042 50.3282 17.8542 49.8542C18.1146 49.3855 18.25 48.849 18.25 48.25C18.25 47.6667 18.1146 47.1407 17.8542 46.6667C17.6042 46.198 17.2604 45.8282 16.8333 45.5625C16.401 45.2865 15.9167 45.1459 15.375 45.1459H14.25V51.375Z" fill="#F7838D"/>
<path d="M30.6178 45.125H26.7012V47.2709H30.0553V49.25H26.7012V51.3959H30.6178V53.375H24.4512V43.1459H30.6178V45.125Z" fill="#F7838D"/>
<path d="M37.7196 53.5208C36.8133 53.5208 36.0216 53.3021 35.3446 52.8542C34.6623 52.4115 34.1571 51.8698 33.8237 51.2292L35.6779 50.0625C35.8706 50.4687 36.1414 50.7917 36.4904 51.0417C36.8498 51.2813 37.2664 51.3958 37.7404 51.3958C38.1258 51.3958 38.4331 51.3125 38.6571 51.1458C38.8758 50.9687 38.9904 50.7396 38.9904 50.4583C38.9904 50.1667 38.8706 49.9323 38.6362 49.75C38.4123 49.5729 38.1206 49.4167 37.7612 49.2917C37.4123 49.1563 37.0373 49.0156 36.6362 48.875C36.23 48.7396 35.8498 48.5573 35.4904 48.3333C35.1258 48.099 34.8289 47.8021 34.5946 47.4375C34.3706 47.0781 34.2612 46.6042 34.2612 46.0208C34.2612 45.3437 34.4175 44.7813 34.7404 44.3333C35.0581 43.8906 35.4696 43.5573 35.9696 43.3333C36.48 43.1146 37.0112 43 37.5529 43C38.1779 43 38.7612 43.1406 39.3029 43.4167C39.855 43.6823 40.3237 44.0313 40.6987 44.4583L39.1987 45.8958C38.9487 45.6042 38.6779 45.3854 38.3862 45.2292C38.105 45.0781 37.8237 45 37.5321 45C37.2508 45 37.0164 45.0729 36.8237 45.2083C36.6258 45.349 36.5321 45.5625 36.5321 45.8542C36.5321 46.1458 36.6414 46.3854 36.8654 46.5625C37.0998 46.7292 37.3966 46.875 37.7612 47C38.1206 47.125 38.4956 47.2656 38.8862 47.4167C39.2873 47.5573 39.6675 47.7448 40.0321 47.9792C40.3914 48.2187 40.6831 48.5365 40.9071 48.9375C41.1258 49.3281 41.2404 49.8437 41.2404 50.4792C41.2404 51.1198 41.0789 51.6667 40.7612 52.125C40.4383 52.5729 40.0112 52.9167 39.4696 53.1667C38.9383 53.401 38.355 53.5208 37.7196 53.5208Z" fill="#F7838D"/>
<path d="M44.958 53.375V43.1459H47.208V53.375H44.958Z" fill="#F7838D"/>
<path d="M56.4054 47.7708H61.6763V48.25C61.6763 48.9896 61.5356 49.6771 61.2596 50.3125C60.994 50.9375 60.619 51.4948 60.1346 51.9792C59.6606 52.4531 59.1034 52.8281 58.4679 53.1042C57.8429 53.3802 57.1606 53.5208 56.4263 53.5208C55.7023 53.5208 55.02 53.3802 54.3846 53.1042C53.744 52.8281 53.1815 52.4531 52.6971 51.9792C52.2231 51.4948 51.8481 50.9375 51.5721 50.3125C51.3065 49.6771 51.1763 48.9896 51.1763 48.25C51.1763 47.5313 51.3065 46.8542 51.5721 46.2292C51.8481 45.5937 52.2231 45.0313 52.6971 44.5417C53.1815 44.0573 53.744 43.6823 54.3846 43.4167C55.02 43.1406 55.7023 43 56.4263 43C57.4367 43 58.3534 43.2656 59.1763 43.7917C60.0096 44.3073 60.645 44.9792 61.0929 45.8125L59.1346 46.8333C58.8846 46.3333 58.52 45.9375 58.0513 45.6458C57.5773 45.3542 57.0356 45.2083 56.4263 45.2083C55.8534 45.2083 55.3325 45.3437 54.8638 45.6042C54.4054 45.8698 54.0409 46.2396 53.7804 46.7083C53.5148 47.1667 53.3846 47.6823 53.3846 48.25C53.3846 48.8333 53.5148 49.3542 53.7804 49.8125C54.0409 50.2708 54.4054 50.6406 54.8638 50.9167C55.3325 51.1823 55.8534 51.3125 56.4263 51.3125C57.0617 51.3125 57.6242 51.1458 58.1138 50.8125C58.6138 50.4792 58.9888 50.0521 59.2388 49.5208H56.4054V47.7708Z" fill="#F7838D"/>
<path d="M72.923 43.1459H75.1522V53.375H72.8397L67.8188 46.5834V53.375H65.5688V43.1459H67.9022L72.923 49.9167V43.1459Z" fill="#F7838D"/>
<path d="M88.8958 53.5208C87.9896 53.5208 87.1979 53.3021 86.5208 52.8542C85.8385 52.4115 85.3333 51.8698 85 51.2292L86.8542 50.0625C87.0469 50.4687 87.3177 50.7917 87.6667 51.0417C88.026 51.2813 88.4427 51.3958 88.9167 51.3958C89.3021 51.3958 89.6094 51.3125 89.8333 51.1458C90.0521 50.9687 90.1667 50.7396 90.1667 50.4583C90.1667 50.1667 90.0469 49.9323 89.8125 49.75C89.5885 49.5729 89.2969 49.4167 88.9375 49.2917C88.5885 49.1563 88.2135 49.0156 87.8125 48.875C87.4062 48.7396 87.026 48.5573 86.6667 48.3333C86.3021 48.099 86.0052 47.8021 85.7708 47.4375C85.5469 47.0781 85.4375 46.6042 85.4375 46.0208C85.4375 45.3437 85.5938 44.7813 85.9167 44.3333C86.2344 43.8906 86.6458 43.5573 87.1458 43.3333C87.6562 43.1146 88.1875 43 88.7292 43C89.3542 43 89.9375 43.1406 90.4792 43.4167C91.0312 43.6823 91.5 44.0313 91.875 44.4583L90.375 45.8958C90.125 45.6042 89.8542 45.3854 89.5625 45.2292C89.2812 45.0781 89 45 88.7083 45C88.4271 45 88.1927 45.0729 88 45.2083C87.8021 45.349 87.7083 45.5625 87.7083 45.8542C87.7083 46.1458 87.8177 46.3854 88.0417 46.5625C88.276 46.7292 88.5729 46.875 88.9375 47C89.2969 47.125 89.6719 47.2656 90.0625 47.4167C90.4635 47.5573 90.8438 47.7448 91.2083 47.9792C91.5677 48.2187 91.8594 48.5365 92.0833 48.9375C92.3021 49.3281 92.4167 49.8437 92.4167 50.4792C92.4167 51.1198 92.2552 51.6667 91.9375 52.125C91.6146 52.5729 91.1875 52.9167 90.6458 53.1667C90.1146 53.401 89.5312 53.5208 88.8958 53.5208Z" fill="#F7838D"/>
<path d="M102.364 43V45H99.8011V53.2292H97.5511V45H94.9678V43H102.364Z" fill="#F7838D"/>
<path d="M109.729 53.375C108.921 53.375 108.197 53.224 107.562 52.9167C106.921 52.6146 106.416 52.2031 106.041 51.6875C105.666 51.1771 105.479 50.599 105.479 49.9583V43H107.729V49.5208C107.729 50.0521 107.921 50.4948 108.312 50.8542C108.697 51.2031 109.171 51.375 109.729 51.375C110.296 51.375 110.77 51.2031 111.145 50.8542C111.531 50.4948 111.729 50.0521 111.729 49.5208V43H113.979V49.9583C113.979 50.599 113.791 51.1771 113.416 51.6875C113.041 52.2031 112.531 52.6146 111.895 52.9167C111.255 53.224 110.531 53.375 109.729 53.375Z" fill="#F7838D"/>
<path d="M118.178 53.2292V43H121.553C122.261 43 122.917 43.1354 123.532 43.3958C124.157 43.6615 124.704 44.0312 125.178 44.5C125.646 44.9583 126.016 45.5 126.282 46.125C126.542 46.75 126.678 47.4115 126.678 48.1042C126.678 48.8125 126.542 49.4792 126.282 50.1042C126.016 50.7188 125.646 51.2604 125.178 51.7292C124.704 52.2031 124.157 52.5729 123.532 52.8333C122.917 53.099 122.261 53.2292 121.553 53.2292H118.178ZM120.428 51.2292H121.553C122.094 51.2292 122.579 51.099 123.011 50.8333C123.438 50.5573 123.782 50.1823 124.032 49.7083C124.292 49.2396 124.428 48.7031 124.428 48.1042C124.428 47.5208 124.292 46.9948 124.032 46.5208C123.782 46.0521 123.438 45.6823 123.011 45.4167C122.579 45.1406 122.094 45 121.553 45H120.428V51.2292Z" fill="#F7838D"/>
<path d="M130.629 53.2292V43H132.879V53.2292H130.629Z" fill="#F7838D"/>
<path d="M142.076 53.5208C141.352 53.5208 140.67 53.3802 140.035 53.1042C139.41 52.8281 138.852 52.4531 138.368 51.9792C137.894 51.4948 137.519 50.9375 137.243 50.3125C136.962 49.6771 136.826 48.9896 136.826 48.25C136.826 47.5313 136.962 46.8542 137.243 46.2292C137.519 45.5937 137.894 45.0313 138.368 44.5417C138.852 44.0573 139.41 43.6823 140.035 43.4167C140.67 43.1406 141.352 43 142.076 43C142.811 43 143.498 43.1406 144.139 43.4167C144.774 43.6823 145.331 44.0573 145.805 44.5417C146.274 45.0313 146.649 45.5937 146.93 46.2292C147.206 46.8542 147.347 47.5313 147.347 48.25C147.347 48.9896 147.206 49.6771 146.93 50.3125C146.649 50.9375 146.274 51.4948 145.805 51.9792C145.331 52.4531 144.774 52.8281 144.139 53.1042C143.498 53.3802 142.811 53.5208 142.076 53.5208ZM142.076 51.3125C142.66 51.3125 143.18 51.1823 143.639 50.9167C144.107 50.6406 144.477 50.2708 144.743 49.8125C145.003 49.3542 145.139 48.8333 145.139 48.25C145.139 47.6823 145.003 47.1667 144.743 46.7083C144.477 46.2396 144.107 45.8698 143.639 45.6042C143.18 45.3437 142.66 45.2083 142.076 45.2083C141.519 45.2083 141.003 45.3437 140.535 45.6042C140.076 45.8698 139.712 46.2396 139.451 46.7083C139.186 47.1667 139.055 47.6823 139.055 48.25C139.055 48.8333 139.186 49.3542 139.451 49.8125C139.712 50.2708 140.076 50.6406 140.535 50.9167C141.003 51.1823 141.519 51.3125 142.076 51.3125Z" fill="#F7838D"/>
<mask id="mask0_156_3" style="mask-type:alpha" maskUnits="userSpaceOnUse" x="0" y="-2" width="147" height="81">
<path d="M128.276 0.192749V74.0521" stroke="#F7838D" stroke-width="4"/>
<path d="M136.276 0.192749L136.276 74.0521" stroke="#F7838D" stroke-width="4"/>
<path d="M144.276 0.192749L144.276 74.0521" stroke="#F7838D" stroke-width="4"/>
<path d="M87.9688 0.192749V74.0521" stroke="#F7838D" stroke-width="4"/>
<path d="M95.9688 0L95.9688 73.8594" stroke="#F7838D" stroke-width="4"/>
<path d="M103.969 0.192749L103.969 74.0521" stroke="#F7838D" stroke-width="4"/>
<path d="M34.3179 -0.442749L66.3074 77.1614" stroke="#F7838D" stroke-width="4"/>
<path d="M43.3105 -0.083374L74.0241 77.5208" stroke="#F7838D" stroke-width="4"/>
<path d="M51.0258 -0.437553L83.1664 77.1666" stroke="#F7838D" stroke-width="4"/>
<path d="M35.896 2.17712L2.72412 76.474" stroke="#F7838D" stroke-width="4"/>
<path d="M38.9003 11.0107L10.8499 77.1343" stroke="#F7838D" stroke-width="4"/>
<path d="M42.7446 19.099L18.854 76.6824" stroke="#F7838D" stroke-width="4"/>
</mask>
<g mask="url(#mask0_156_3)">
<rect x="-4" y="58" width="162" height="16" fill="#F7838D"/>
<rect x="6" y="3" width="162" height="36" fill="#F7838D"/>
</g>
</g>
<defs>
<clipPath id="clip0_156_3">
<rect width="154" height="77" fill="white"/>
</clipPath>
</defs>
</svg>
