<svg width="855" height="109" viewBox="0 0 855 109" fill="none" xmlns="http://www.w3.org/2000/svg">
<path d="M31.3202 3.36006H49.1402L80.4002 82.5601H61.2602L55.5002 66.6601H25.0202L19.2002 82.5601H0.000156198L31.3202 3.36006ZM31.0202 50.9401H49.5602L40.3802 24.9601H40.2002L31.0202 50.9401ZM131.974 50.7001H104.614V82.5601H86.7339V3.36006H104.614V35.0401H131.974V3.36006H149.794V82.5601H131.974V50.7001ZM175.675 84.0001C172.715 84.0001 170.155 82.9401 167.995 80.8201C165.875 78.6601 164.815 76.1001 164.815 73.1401C164.815 70.1001 165.875 67.5201 167.995 65.4001C170.155 63.2401 172.715 62.1601 175.675 62.1601C178.715 62.1601 181.295 63.2401 183.415 65.4001C185.535 67.5201 186.595 70.1001 186.595 73.1401C186.595 76.1001 185.535 78.6601 183.415 80.8201C181.295 82.9401 178.715 84.0001 175.675 84.0001ZM221 84.0001C216.24 84.0001 212.1 82.8401 208.58 80.5201C205.06 78.1601 202.32 75.0201 200.36 71.1001C198.44 67.1401 197.48 62.7601 197.48 57.9601C197.48 53.1601 198.44 48.8001 200.36 44.8801C202.32 40.9201 205.06 37.7601 208.58 35.4001C212.1 33.0401 216.24 31.8601 221 31.8601C224.16 31.8601 226.96 32.3601 229.4 33.3601C231.84 34.3201 233.82 35.4801 235.34 36.8401C236.86 38.1601 237.78 39.3801 238.1 40.5001V5.57899e-05H256.34V82.5601H238.28V74.5801C237.52 76.0601 236.28 77.5401 234.56 79.0201C232.84 80.4601 230.82 81.6401 228.5 82.5601C226.18 83.5201 223.68 84.0001 221 84.0001ZM226.58 69.6601C228.78 69.6601 230.74 69.1601 232.46 68.1601C234.22 67.1601 235.6 65.7801 236.6 64.0201C237.6 62.2201 238.1 60.2001 238.1 57.9601C238.1 55.7201 237.6 53.7201 236.6 51.9601C235.6 50.1601 234.22 48.7601 232.46 47.7601C230.74 46.7201 228.78 46.2001 226.58 46.2001C224.46 46.2001 222.54 46.7201 220.82 47.7601C219.14 48.7601 217.8 50.1601 216.8 51.9601C215.84 53.7201 215.36 55.7201 215.36 57.9601C215.36 60.2001 215.84 62.2201 216.8 64.0201C217.8 65.7801 219.14 67.1601 220.82 68.1601C222.54 69.1601 224.46 69.6601 226.58 69.6601ZM281.431 61.8001C281.551 63.5601 282.111 65.1201 283.111 66.4801C284.111 67.8401 285.491 68.9201 287.251 69.7201C289.051 70.4801 291.171 70.8601 293.611 70.8601C295.931 70.8601 298.011 70.6201 299.851 70.1401C301.731 69.6601 303.351 69.0601 304.711 68.3401C306.111 67.6201 307.191 66.8801 307.951 66.1201L315.031 77.4001C314.031 78.4801 312.611 79.5401 310.771 80.5801C308.971 81.5801 306.591 82.4001 303.631 83.0401C300.671 83.6801 296.931 84.0001 292.411 84.0001C286.971 84.0001 282.131 82.9801 277.891 80.9401C273.651 78.9001 270.311 75.9001 267.871 71.9401C265.431 67.9801 264.211 63.1401 264.211 57.4201C264.211 52.6201 265.251 48.3001 267.331 44.4601C269.451 40.5801 272.511 37.5201 276.511 35.2801C280.511 33.0001 285.331 31.8601 290.971 31.8601C296.331 31.8601 300.971 32.8401 304.891 34.8001C308.851 36.7601 311.891 39.6801 314.011 43.5601C316.171 47.4001 317.251 52.2001 317.251 57.9601C317.251 58.2801 317.231 58.9201 317.191 59.8801C317.191 60.8401 317.151 61.4801 317.071 61.8001H281.431ZM300.091 52.2601C300.051 50.9801 299.711 49.7201 299.071 48.4801C298.431 47.2001 297.471 46.1601 296.191 45.3601C294.911 44.5201 293.271 44.1001 291.271 44.1001C289.271 44.1001 287.571 44.5001 286.171 45.3001C284.811 46.0601 283.771 47.0601 283.051 48.3001C282.331 49.5401 281.931 50.8601 281.851 52.2601H300.091ZM348.757 31.8601C351.997 31.8601 354.957 32.1401 357.637 32.7001C360.317 33.2201 362.557 33.8201 364.357 34.5001C366.197 35.1801 367.377 35.7401 367.897 36.1801L361.957 46.9201C361.197 46.3601 359.777 45.6401 357.697 44.7601C355.657 43.8801 353.377 43.4401 350.857 43.4401C348.937 43.4401 347.317 43.7401 345.997 44.3401C344.677 44.9001 344.017 45.8001 344.017 47.0401C344.017 48.2801 344.737 49.2801 346.177 50.0401C347.657 50.7601 349.777 51.4001 352.537 51.9601C354.937 52.4401 357.377 53.2001 359.857 54.2401C362.337 55.2801 364.397 56.8201 366.037 58.8601C367.717 60.8601 368.557 63.5401 368.557 66.9001C368.557 70.3401 367.817 73.1801 366.337 75.4201C364.857 77.6601 362.897 79.4001 360.457 80.6401C358.017 81.8801 355.377 82.7401 352.537 83.2201C349.697 83.7401 346.937 84.0001 344.257 84.0001C340.497 84.0001 337.217 83.6601 334.417 82.9801C331.657 82.3001 329.417 81.5201 327.697 80.6401C325.977 79.7601 324.777 79.0601 324.097 78.5401L329.977 66.5401C331.017 67.4201 332.717 68.4201 335.077 69.5401C337.437 70.6201 339.937 71.1601 342.577 71.1601C345.137 71.1601 347.117 70.7801 348.517 70.0201C349.917 69.2601 350.617 68.2601 350.617 67.0201C350.617 66.0201 350.277 65.2201 349.597 64.6201C348.917 64.0201 347.957 63.5001 346.717 63.0601C345.477 62.6201 343.977 62.2201 342.217 61.8601C340.617 61.5401 338.917 61.0401 337.117 60.3601C335.317 59.6801 333.617 58.7601 332.017 57.6001C330.417 56.4001 329.117 54.9001 328.117 53.1001C327.117 51.3001 326.617 49.1201 326.617 46.5601C326.617 43.2801 327.677 40.5601 329.797 38.4001C331.917 36.2401 334.657 34.6201 338.017 33.5401C341.377 32.4201 344.957 31.8601 348.757 31.8601ZM378.839 82.5601V33.3001H397.079V82.5601H378.839ZM388.199 23.1601C385.319 23.1601 382.879 22.1601 380.879 20.1601C378.879 18.1201 377.879 15.7001 377.879 12.9001C377.879 10.1001 378.879 7.68005 380.879 5.64005C382.919 3.56005 385.359 2.52005 388.199 2.52005C390.079 2.52005 391.799 3.00005 393.359 3.96005C394.919 4.88005 396.179 6.12006 397.139 7.68006C398.099 9.24005 398.579 10.9801 398.579 12.9001C398.579 15.7001 397.559 18.1201 395.519 20.1601C393.479 22.1601 391.039 23.1601 388.199 23.1601ZM435.505 108.9C432.065 108.9 428.645 108.6 425.245 108C421.885 107.4 418.745 106.38 415.825 104.94C412.905 103.5 410.445 101.52 408.445 99.0001L419.125 87.9001C420.045 88.9801 421.165 90.0401 422.485 91.0801C423.845 92.1201 425.505 92.9801 427.465 93.6601C429.465 94.3401 431.885 94.6801 434.725 94.6801C437.365 94.6801 439.665 94.2201 441.625 93.3001C443.585 92.3801 445.105 91.0401 446.185 89.2801C447.305 87.5201 447.865 85.3801 447.865 82.8601V81.6601H465.805V83.9401C465.805 89.3801 464.445 93.9601 461.725 97.6801C459.045 101.4 455.425 104.2 450.865 106.08C446.305 107.96 441.185 108.9 435.505 108.9ZM447.865 82.5601V74.5801C447.505 75.3801 446.585 76.5401 445.105 78.0601C443.665 79.5801 441.745 80.9601 439.345 82.2001C436.945 83.4001 434.145 84.0001 430.945 84.0001C426.145 84.0001 421.945 82.8401 418.345 80.5201C414.745 78.1601 411.945 75.0201 409.945 71.1001C407.945 67.1401 406.945 62.7601 406.945 57.9601C406.945 53.1601 407.945 48.8001 409.945 44.8801C411.945 40.9201 414.745 37.7601 418.345 35.4001C421.945 33.0401 426.145 31.8601 430.945 31.8601C434.025 31.8601 436.725 32.3601 439.045 33.3601C441.365 34.3201 443.245 35.4801 444.685 36.8401C446.125 38.1601 447.125 39.3801 447.685 40.5001V33.3001H465.805V82.5601H447.865ZM424.825 57.9601C424.825 60.2001 425.345 62.2201 426.385 64.0201C427.425 65.7801 428.805 67.1601 430.525 68.1601C432.285 69.1601 434.225 69.6601 436.345 69.6601C438.545 69.6601 440.485 69.1601 442.165 68.1601C443.845 67.1601 445.165 65.7801 446.125 64.0201C447.125 62.2201 447.625 60.2001 447.625 57.9601C447.625 55.7201 447.125 53.7201 446.125 51.9601C445.165 50.1601 443.845 48.7601 442.165 47.7601C440.485 46.7201 438.545 46.2001 436.345 46.2001C434.225 46.2001 432.285 46.7201 430.525 47.7601C428.805 48.7601 427.425 50.1601 426.385 51.9601C425.345 53.7201 424.825 55.7201 424.825 57.9601ZM511.397 31.8601C514.837 31.8601 518.197 32.5601 521.477 33.9601C524.757 35.3601 527.457 37.5801 529.577 40.6201C531.697 43.6201 532.757 47.5801 532.757 52.5001V82.5601H514.457V55.5001C514.457 51.9801 513.617 49.3401 511.937 47.5801C510.257 45.7801 508.057 44.8801 505.337 44.8801C503.537 44.8801 501.837 45.3601 500.237 46.3201C498.677 47.2401 497.397 48.5601 496.397 50.2801C495.437 51.9601 494.957 53.9001 494.957 56.1001V82.5601H476.717V33.3001H494.957V40.5601C495.437 39.2401 496.437 37.9201 497.957 36.6001C499.517 35.2401 501.457 34.1201 503.777 33.2401C506.137 32.3201 508.677 31.8601 511.397 31.8601ZM565.436 31.8601C568.676 31.8601 571.636 32.1401 574.316 32.7001C576.996 33.2201 579.236 33.8201 581.036 34.5001C582.876 35.1801 584.056 35.7401 584.576 36.1801L578.636 46.9201C577.876 46.3601 576.456 45.6401 574.376 44.7601C572.336 43.8801 570.056 43.4401 567.536 43.4401C565.616 43.4401 563.996 43.7401 562.676 44.3401C561.356 44.9001 560.696 45.8001 560.696 47.0401C560.696 48.2801 561.416 49.2801 562.856 50.0401C564.336 50.7601 566.456 51.4001 569.216 51.9601C571.616 52.4401 574.056 53.2001 576.536 54.2401C579.016 55.2801 581.076 56.8201 582.716 58.8601C584.396 60.8601 585.236 63.5401 585.236 66.9001C585.236 70.3401 584.496 73.1801 583.016 75.4201C581.536 77.6601 579.576 79.4001 577.136 80.6401C574.696 81.8801 572.056 82.7401 569.216 83.2201C566.376 83.7401 563.616 84.0001 560.936 84.0001C557.176 84.0001 553.896 83.6601 551.096 82.9801C548.336 82.3001 546.096 81.5201 544.376 80.6401C542.656 79.7601 541.456 79.0601 540.776 78.5401L546.656 66.5401C547.696 67.4201 549.396 68.4201 551.756 69.5401C554.116 70.6201 556.616 71.1601 559.256 71.1601C561.816 71.1601 563.796 70.7801 565.196 70.0201C566.596 69.2601 567.296 68.2601 567.296 67.0201C567.296 66.0201 566.956 65.2201 566.276 64.6201C565.596 64.0201 564.636 63.5001 563.396 63.0601C562.156 62.6201 560.656 62.2201 558.896 61.8601C557.296 61.5401 555.596 61.0401 553.796 60.3601C551.996 59.6801 550.296 58.7601 548.696 57.6001C547.096 56.4001 545.796 54.9001 544.796 53.1001C543.796 51.3001 543.296 49.1201 543.296 46.5601C543.296 43.2801 544.356 40.5601 546.476 38.4001C548.596 36.2401 551.336 34.6201 554.696 33.5401C558.056 32.4201 561.636 31.8601 565.436 31.8601ZM589.899 33.3001H598.299V13.0801H616.359V33.3001H627.399V48.3001H616.359V62.0401C616.359 64.0801 616.659 65.7401 617.259 67.0201C617.859 68.2601 618.959 68.8801 620.559 68.8801C621.639 68.8801 622.559 68.6401 623.319 68.1601C624.079 67.6801 624.539 67.3601 624.699 67.2001L630.939 80.1601C630.659 80.4001 629.779 80.8401 628.299 81.4801C626.859 82.1201 625.019 82.7001 622.779 83.2201C620.539 83.7401 618.039 84.0001 615.279 84.0001C610.359 84.0001 606.299 82.6201 603.099 79.8601C599.899 77.0601 598.299 72.7601 598.299 66.9601V48.3001H589.899V33.3001ZM654.972 56.1001C654.972 60.0201 655.712 63.1601 657.192 65.5201C658.672 67.8401 661.152 69.0001 664.632 69.0001C668.192 69.0001 670.692 67.8401 672.132 65.5201C673.612 63.1601 674.352 60.0201 674.352 56.1001V33.3001H692.352V58.0201C692.352 63.3001 691.252 67.9001 689.052 71.8201C686.892 75.7001 683.752 78.7001 679.632 80.8201C675.512 82.9401 670.512 84.0001 664.632 84.0001C658.792 84.0001 653.812 82.9401 649.692 80.8201C645.572 78.7001 642.432 75.7001 640.272 71.8201C638.112 67.9001 637.032 63.3001 637.032 58.0201V33.3001H654.972V56.1001ZM724.555 84.0001C719.795 84.0001 715.655 82.8401 712.135 80.5201C708.615 78.1601 705.875 75.0201 703.915 71.1001C701.995 67.1401 701.035 62.7601 701.035 57.9601C701.035 53.1601 701.995 48.8001 703.915 44.8801C705.875 40.9201 708.615 37.7601 712.135 35.4001C715.655 33.0401 719.795 31.8601 724.555 31.8601C727.715 31.8601 730.515 32.3601 732.955 33.3601C735.395 34.3201 737.375 35.4801 738.895 36.8401C740.415 38.1601 741.335 39.3801 741.655 40.5001V5.57899e-05H759.895V82.5601H741.835V74.5801C741.075 76.0601 739.835 77.5401 738.115 79.0201C736.395 80.4601 734.375 81.6401 732.055 82.5601C729.735 83.5201 727.235 84.0001 724.555 84.0001ZM730.135 69.6601C732.335 69.6601 734.295 69.1601 736.015 68.1601C737.775 67.1601 739.155 65.7801 740.155 64.0201C741.155 62.2201 741.655 60.2001 741.655 57.9601C741.655 55.7201 741.155 53.7201 740.155 51.9601C739.155 50.1601 737.775 48.7601 736.015 47.7601C734.295 46.7201 732.335 46.2001 730.135 46.2001C728.015 46.2001 726.095 46.7201 724.375 47.7601C722.695 48.7601 721.355 50.1601 720.355 51.9601C719.395 53.7201 718.915 55.7201 718.915 57.9601C718.915 60.2001 719.395 62.2201 720.355 64.0201C721.355 65.7801 722.695 67.1601 724.375 68.1601C726.095 69.1601 728.015 69.6601 730.135 69.6601ZM771.066 82.5601V33.3001H789.306V82.5601H771.066ZM780.426 23.1601C777.546 23.1601 775.106 22.1601 773.106 20.1601C771.106 18.1201 770.106 15.7001 770.106 12.9001C770.106 10.1001 771.106 7.68005 773.106 5.64005C775.146 3.56005 777.586 2.52005 780.426 2.52005C782.306 2.52005 784.026 3.00005 785.586 3.96005C787.146 4.88005 788.406 6.12006 789.366 7.68006C790.326 9.24005 790.806 10.9801 790.806 12.9001C790.806 15.7001 789.786 18.1201 787.746 20.1601C785.706 22.1601 783.266 23.1601 780.426 23.1601ZM826.952 84.0001C821.552 84.0001 816.752 82.9001 812.552 80.7001C808.392 78.4601 805.112 75.4001 802.712 71.5201C800.352 67.6001 799.172 63.1201 799.172 58.0801C799.172 53.0401 800.352 48.5601 802.712 44.6401C805.112 40.6801 808.392 37.5601 812.552 35.2801C816.752 33.0001 821.552 31.8601 826.952 31.8601C832.352 31.8601 837.112 33.0001 841.232 35.2801C845.352 37.5601 848.572 40.6801 850.892 44.6401C853.212 48.5601 854.372 53.0401 854.372 58.0801C854.372 63.1201 853.212 67.6001 850.892 71.5201C848.572 75.4001 845.352 78.4601 841.232 80.7001C837.112 82.9001 832.352 84.0001 826.952 84.0001ZM826.952 69.0001C829.032 69.0001 830.832 68.5401 832.352 67.6201C833.872 66.7001 835.052 65.4001 835.892 63.7201C836.732 62.0401 837.152 60.1401 837.152 58.0201C837.152 55.8601 836.732 53.9401 835.892 52.2601C835.052 50.5801 833.872 49.2601 832.352 48.3001C830.832 47.3401 829.032 46.8601 826.952 46.8601C824.872 46.8601 823.052 47.3401 821.492 48.3001C819.972 49.2601 818.772 50.5801 817.892 52.2601C817.052 53.9401 816.632 55.8601 816.632 58.0201C816.632 60.1401 817.052 62.0401 817.892 63.7201C818.772 65.4001 819.972 66.7001 821.492 67.6201C823.052 68.5401 824.872 69.0001 826.952 69.0001Z" fill="black"/>
</svg>
